<?xml version="1.0" standalone="no"?>
<!DOCTYPE svg PUBLIC "-//W3C//DTD SVG 20010904//EN"
 "http://www.w3.org/TR/2001/REC-SVG-20010904/DTD/svg10.dtd">
<svg version="1.0" xmlns="http://www.w3.org/2000/svg"
 width="250.000000pt" height="71.000000pt" viewBox="0 0 896.000000 271.000000"
 preserveAspectRatio="xMidYMid meet">

<g transform="translate(0.000000,271.000000) scale(0.100000,-0.100000)"
fill="#FF0D68" stroke="none">
<path d="M5627 1676 c-64 -24 -115 -63 -144 -113 l-28 -48 -3 -537 -3 -538
141 0 140 0 0 500 c0 442 2 501 15 507 9 3 18 3 21 0 3 -3 48 -197 100 -432
64 -294 100 -437 115 -462 29 -46 90 -90 152 -108 139 -41 300 13 364 123 l28
47 3 533 3 532 -141 0 -140 0 -2 -492 c-4 -648 -2 -646 -128 -76 -108 485
-110 490 -214 543 -51 26 -72 30 -150 33 -59 1 -104 -3 -129 -12z"/>
<path d="M440 1283 c1 -501 10 -583 82 -703 36 -60 103 -111 171 -132 67 -20
388 -17 457 4 139 43 221 162 250 363 5 39 10 249 10 468 l0 397 -139 0 -140
0 -3 -427 -3 -428 -25 -50 c-36 -71 -73 -90 -175 -89 -122 1 -164 29 -190 129
-12 49 -15 131 -15 462 l0 403 -140 0 -140 0 0 -397z"/>
<path d="M2504 1667 c-2 -7 -3 -62 -2 -123 l3 -109 129 -3 c86 -2 133 1 142 9
17 14 20 189 4 220 -10 17 -22 19 -141 19 -98 0 -131 -3 -135 -13z"/>
<path d="M6865 1663 c-73 -26 -107 -54 -141 -115 l-29 -53 -3 -527 -3 -528
141 0 140 0 0 245 0 245 118 0 c66 0 174 3 240 7 l122 6 0 112 0 112 -97 6
c-54 4 -132 7 -173 7 -41 0 -105 3 -142 7 l-68 6 0 91 c0 50 4 96 8 102 18 27
56 34 180 34 71 0 184 3 250 7 l122 6 0 112 0 112 -57 6 c-32 4 -170 9 -308
12 -225 5 -255 4 -300 -12z"/>
<path d="M7630 1555 l0 -125 165 0 165 0 0 -495 0 -495 140 0 140 0 0 495 0
495 165 0 165 0 0 125 0 125 -470 0 -470 0 0 -125z"/>
<path d="M1880 1350 c-103 -11 -152 -25 -242 -72 l-78 -40 0 -399 0 -399 140
0 140 0 2 322 3 322 33 19 c18 11 60 22 95 24 52 5 66 2 87 -15 l25 -20 3
-326 3 -326 140 0 140 0 -3 358 c-3 346 -4 358 -25 398 -35 66 -70 101 -130
130 -47 24 -70 28 -157 30 -55 1 -135 -1 -176 -6z"/>
<path d="M4950 1345 c-45 -9 -105 -29 -150 -52 l-75 -38 -3 -407 -2 -408 140
0 140 0 2 327 3 327 50 13 c33 9 88 13 163 10 l112 -3 0 117 0 117 -31 6 c-54
10 -270 5 -349 -9z"/>
<path d="M3130 1341 c-154 -47 -222 -213 -207 -505 12 -236 70 -349 200 -392
67 -22 379 -15 447 10 93 34 90 30 90 121 l0 81 -188 -4 c-207 -5 -220 -2
-249 51 -26 47 -26 327 0 374 29 55 44 58 240 55 l177 -3 0 84 0 85 -67 16
c-135 33 -376 47 -443 27z"/>
<path d="M3994 1336 c-154 -35 -216 -113 -245 -306 -16 -115 -7 -295 21 -383
28 -89 89 -155 175 -187 82 -30 259 -38 364 -16 186 39 248 133 258 391 6 148
-10 270 -47 348 -29 61 -95 119 -162 141 -72 24 -280 31 -364 12z m243 -213
c32 -12 47 -66 51 -190 6 -161 -3 -229 -33 -259 -21 -21 -34 -24 -94 -24 -38
0 -77 3 -86 6 -35 14 -49 64 -53 200 -4 137 8 233 34 255 31 25 128 32 181 12z"/>
<path d="M2500 890 l0 -450 140 0 140 0 0 450 0 450 -140 0 -140 0 0 -450z"/>
</g>
</svg>
